<mxfile host="app.diagrams.net" modified="2024-05-02T01:54:47.774Z" agent="Mozilla/5.0 (Windows NT 10.0; Win64; x64) AppleWebKit/537.36 (KHTML, like Gecko) Chrome/116.0.0.0 Safari/537.36" etag="2_ara8l3znQZ0OkGVL2o" version="24.3.1" type="device">
  <diagram name="Page-1" id="UzFd8_LQgDj-Nqwv6K2w">
    <mxGraphModel dx="934" dy="600" grid="1" gridSize="10" guides="1" tooltips="1" connect="1" arrows="1" fold="1" page="1" pageScale="1" pageWidth="827" pageHeight="1169" math="0" shadow="0">
      <root>
        <mxCell id="0" />
        <mxCell id="1" parent="0" />
        <mxCell id="HCVeiEO_FW32a_39zGOW-1" value="&lt;span style=&quot;font-size: 20px;&quot;&gt;&lt;b&gt;The organization of Model-View-Controller (MVC)&amp;nbsp;&lt;/b&gt;&lt;/span&gt;&lt;div&gt;&lt;span style=&quot;font-size: 20px;&quot;&gt;&lt;b&gt;Architectural Pattern&lt;/b&gt;&lt;/span&gt;&lt;/div&gt;" style="text;html=1;align=center;verticalAlign=middle;whiteSpace=wrap;rounded=0;" vertex="1" parent="1">
          <mxGeometry x="145" y="30" width="510" height="100" as="geometry" />
        </mxCell>
        <mxCell id="HCVeiEO_FW32a_39zGOW-2" value="&lt;font style=&quot;font-size: 20px;&quot;&gt;&lt;b&gt;Model&lt;/b&gt;&lt;/font&gt;&lt;div&gt;&lt;ul&gt;&lt;li style=&quot;text-align: left;&quot;&gt;&lt;font style=&quot;font-size: 20px;&quot;&gt;Encapsulates application state&lt;/font&gt;&lt;/li&gt;&lt;li style=&quot;text-align: left;&quot;&gt;&lt;span style=&quot;font-size: 20px;&quot;&gt;Notifies view of state change&lt;/span&gt;&lt;/li&gt;&lt;/ul&gt;&lt;/div&gt;" style="rounded=1;whiteSpace=wrap;html=1;" vertex="1" parent="1">
          <mxGeometry x="240" y="400" width="320" height="130" as="geometry" />
        </mxCell>
        <mxCell id="HCVeiEO_FW32a_39zGOW-3" value="&lt;font style=&quot;font-size: 20px;&quot;&gt;&lt;b&gt;Controller&lt;/b&gt;&lt;/font&gt;&lt;div&gt;&lt;ul&gt;&lt;li style=&quot;text-align: left;&quot;&gt;&lt;span style=&quot;font-size: 20px;&quot;&gt;Maps user actions to model updates&amp;nbsp;&lt;/span&gt;&lt;/li&gt;&lt;li style=&quot;text-align: left;&quot;&gt;&lt;span style=&quot;font-size: 20px;&quot;&gt;Select view&lt;/span&gt;&lt;/li&gt;&lt;/ul&gt;&lt;/div&gt;" style="rounded=1;whiteSpace=wrap;html=1;" vertex="1" parent="1">
          <mxGeometry x="30" y="150" width="320" height="130" as="geometry" />
        </mxCell>
        <mxCell id="HCVeiEO_FW32a_39zGOW-4" value="&lt;font style=&quot;font-size: 20px;&quot;&gt;&lt;b&gt;View&lt;/b&gt;&lt;/font&gt;&lt;div&gt;&lt;ul&gt;&lt;li style=&quot;text-align: left;&quot;&gt;&lt;span style=&quot;font-size: 20px;&quot;&gt;Renders model&lt;/span&gt;&lt;/li&gt;&lt;li style=&quot;text-align: left;&quot;&gt;&lt;span style=&quot;font-size: 20px;&quot;&gt;Requests model updates&lt;/span&gt;&lt;/li&gt;&lt;li style=&quot;text-align: left;&quot;&gt;&lt;span style=&quot;font-size: 20px;&quot;&gt;Send user events to controller&lt;/span&gt;&lt;/li&gt;&lt;/ul&gt;&lt;/div&gt;" style="rounded=1;whiteSpace=wrap;html=1;" vertex="1" parent="1">
          <mxGeometry x="470" y="150" width="320" height="130" as="geometry" />
        </mxCell>
        <mxCell id="HCVeiEO_FW32a_39zGOW-5" value="" style="endArrow=classic;html=1;rounded=0;entryX=0.156;entryY=1.023;entryDx=0;entryDy=0;entryPerimeter=0;" edge="1" parent="1" target="HCVeiEO_FW32a_39zGOW-4">
          <mxGeometry width="50" height="50" relative="1" as="geometry">
            <mxPoint x="520" y="400" as="sourcePoint" />
            <mxPoint x="570" y="350" as="targetPoint" />
          </mxGeometry>
        </mxCell>
        <mxCell id="HCVeiEO_FW32a_39zGOW-6" value="&lt;font style=&quot;font-size: 18px;&quot;&gt;Change&amp;nbsp;&lt;/font&gt;&lt;div style=&quot;font-size: 18px;&quot;&gt;&lt;font style=&quot;font-size: 18px;&quot;&gt;notification&lt;/font&gt;&lt;/div&gt;" style="text;html=1;align=center;verticalAlign=middle;whiteSpace=wrap;rounded=0;" vertex="1" parent="1">
          <mxGeometry x="440" y="330" width="60" height="30" as="geometry" />
        </mxCell>
        <mxCell id="HCVeiEO_FW32a_39zGOW-7" value="" style="endArrow=classic;html=1;rounded=0;exitX=0.709;exitY=1;exitDx=0;exitDy=0;exitPerimeter=0;entryX=1.003;entryY=0.569;entryDx=0;entryDy=0;entryPerimeter=0;edgeStyle=orthogonalEdgeStyle;" edge="1" parent="1" source="HCVeiEO_FW32a_39zGOW-4" target="HCVeiEO_FW32a_39zGOW-2">
          <mxGeometry width="50" height="50" relative="1" as="geometry">
            <mxPoint x="650" y="500" as="sourcePoint" />
            <mxPoint x="700" y="450" as="targetPoint" />
          </mxGeometry>
        </mxCell>
        <mxCell id="HCVeiEO_FW32a_39zGOW-8" value="&lt;span style=&quot;font-size: 18px;&quot;&gt;State&lt;/span&gt;&lt;div&gt;&lt;span style=&quot;font-size: 18px;&quot;&gt;query&lt;/span&gt;&lt;/div&gt;" style="text;html=1;align=center;verticalAlign=middle;whiteSpace=wrap;rounded=0;" vertex="1" parent="1">
          <mxGeometry x="725" y="330" width="60" height="30" as="geometry" />
        </mxCell>
        <mxCell id="HCVeiEO_FW32a_39zGOW-9" value="" style="endArrow=classic;html=1;rounded=0;entryX=-0.012;entryY=0.385;entryDx=0;entryDy=0;entryPerimeter=0;" edge="1" parent="1" target="HCVeiEO_FW32a_39zGOW-4">
          <mxGeometry width="50" height="50" relative="1" as="geometry">
            <mxPoint x="350" y="200" as="sourcePoint" />
            <mxPoint x="400" y="150" as="targetPoint" />
          </mxGeometry>
        </mxCell>
        <mxCell id="HCVeiEO_FW32a_39zGOW-10" value="&lt;span style=&quot;font-size: 18px;&quot;&gt;View&lt;/span&gt;&lt;div&gt;&lt;span style=&quot;font-size: 18px;&quot;&gt;selection&lt;/span&gt;&lt;/div&gt;" style="text;html=1;align=center;verticalAlign=middle;whiteSpace=wrap;rounded=0;" vertex="1" parent="1">
          <mxGeometry x="380" y="150" width="60" height="30" as="geometry" />
        </mxCell>
        <mxCell id="HCVeiEO_FW32a_39zGOW-11" value="" style="endArrow=classic;html=1;rounded=0;entryX=-0.012;entryY=0.385;entryDx=0;entryDy=0;entryPerimeter=0;" edge="1" parent="1">
          <mxGeometry width="50" height="50" relative="1" as="geometry">
            <mxPoint x="466" y="240" as="sourcePoint" />
            <mxPoint x="350" y="240" as="targetPoint" />
          </mxGeometry>
        </mxCell>
        <mxCell id="HCVeiEO_FW32a_39zGOW-12" value="&lt;span style=&quot;font-size: 18px;&quot;&gt;User&lt;/span&gt;&lt;div&gt;&lt;span style=&quot;font-size: 18px;&quot;&gt;events&lt;/span&gt;&lt;/div&gt;" style="text;html=1;align=center;verticalAlign=middle;whiteSpace=wrap;rounded=0;" vertex="1" parent="1">
          <mxGeometry x="380" y="250" width="60" height="30" as="geometry" />
        </mxCell>
        <mxCell id="HCVeiEO_FW32a_39zGOW-13" value="" style="endArrow=classic;html=1;rounded=0;exitX=0.319;exitY=1.008;exitDx=0;exitDy=0;exitPerimeter=0;entryX=-0.016;entryY=0.585;entryDx=0;entryDy=0;entryPerimeter=0;edgeStyle=orthogonalEdgeStyle;" edge="1" parent="1" source="HCVeiEO_FW32a_39zGOW-3" target="HCVeiEO_FW32a_39zGOW-2">
          <mxGeometry width="50" height="50" relative="1" as="geometry">
            <mxPoint x="140" y="440" as="sourcePoint" />
            <mxPoint x="190" y="390" as="targetPoint" />
            <Array as="points">
              <mxPoint x="132" y="476" />
            </Array>
          </mxGeometry>
        </mxCell>
        <mxCell id="HCVeiEO_FW32a_39zGOW-14" value="&lt;span style=&quot;font-size: 18px;&quot;&gt;State&lt;/span&gt;&lt;div&gt;&lt;span style=&quot;font-size: 18px;&quot;&gt;change&lt;/span&gt;&lt;/div&gt;" style="text;html=1;align=center;verticalAlign=middle;whiteSpace=wrap;rounded=0;" vertex="1" parent="1">
          <mxGeometry x="60" y="360" width="60" height="30" as="geometry" />
        </mxCell>
      </root>
    </mxGraphModel>
  </diagram>
</mxfile>
